<?xml version="1.0" encoding="UTF-8"?>
<svg id="Make2D::Visible::Curves" xmlns="http://www.w3.org/2000/svg" viewBox="0 0 553.23 241.39">
  <defs>
    <style>
      .cls-1 {
        fill: none;
        stroke: #000;
        stroke-linecap: round;
        stroke-linejoin: round;
        stroke-width: .5px;
      }
    </style>
  </defs>
  <path class="cls-1" d="m536.54,53.15c1.62.53,2.14,1.8,2.14,4.31,0,4.12-2.26,7.2-8.09,9.04-6.07,1.91-10.81,1.76-15.48.96"/>
  <line class="cls-1" x1="144.19" y1="120.8" x2="131.13" y2="124.92"/>
  <line class="cls-1" x1="131.13" y1="124.92" x2="131.13" y2="135.63"/>
  <line class="cls-1" x1="148.92" y1="130.77" x2="148.92" y2="174.36"/>
  <path class="cls-1" d="m148.92,174.36c0,8.97-2.41,13.33-8.17,15.14-1.84.58-3.37.69-4.6.29"/>
  <line class="cls-1" x1="132.28" y1="179.7" x2="132.28" y2="136.01"/>
  <line class="cls-1" x1="114.48" y1="130.16" x2="99.79" y2="134.79"/>
  <line class="cls-1" x1="99.79" y1="134.79" x2="99.79" y2="150.05"/>
  <line class="cls-1" x1="126.89" y1="204.62" x2="109.09" y2="198.77"/>
  <line class="cls-1" x1="327.71" y1="132.14" x2="345.51" y2="137.99"/>
  <line class="cls-1" x1="345.51" y1="137.99" x2="360.2" y2="133.36"/>
  <line class="cls-1" x1="360.2" y1="133.36" x2="360.2" y2="78.02"/>
  <line class="cls-1" x1="373.89" y1="73.71" x2="373.89" y2="59.79"/>
  <line class="cls-1" x1="356.1" y1="53.95" x2="313.95" y2="67.23"/>
  <line class="cls-1" x1="313.95" y1="67.23" x2="331.74" y2="73.07"/>
  <line class="cls-1" x1="313.95" y1="67.23" x2="313.95" y2="81.14"/>
  <line class="cls-1" x1="363.33" y1="51.67" x2="363.33" y2="56.32"/>
  <line class="cls-1" x1="363.33" y1="120.92" x2="381.12" y2="126.77"/>
  <line class="cls-1" x1="381.12" y1="126.77" x2="395.82" y2="122.14"/>
  <line class="cls-1" x1="378.03" y1="47.04" x2="363.33" y2="51.67"/>
  <line class="cls-1" x1="363.33" y1="77.03" x2="363.33" y2="120.92"/>
  <line class="cls-1" x1="277.24" y1="78.79" x2="270.24" y2="107.54"/>
  <line class="cls-1" x1="277.24" y1="78.79" x2="295.04" y2="84.63"/>
  <line class="cls-1" x1="276.76" y1="159.64" x2="289.98" y2="155.48"/>
  <line class="cls-1" x1="289.98" y1="155.48" x2="293.25" y2="140.74"/>
  <line class="cls-1" x1="296.06" y1="142.11" x2="313.86" y2="147.96"/>
  <line class="cls-1" x1="313.86" y1="147.96" x2="328.79" y2="143.25"/>
  <line class="cls-1" x1="292.87" y1="73.86" x2="310.67" y2="79.71"/>
  <line class="cls-1" x1="328.79" y1="143.25" x2="310.67" y2="79.71"/>
  <line class="cls-1" x1="292.87" y1="73.86" x2="277.24" y2="78.79"/>
  <line class="cls-1" x1="301.57" y1="102.67" x2="301.88" y2="102.57"/>
  <line class="cls-1" x1="301.88" y1="102.57" x2="307.4" y2="123.82"/>
  <line class="cls-1" x1="295.49" y1="140.04" x2="296.06" y2="142.11"/>
  <line class="cls-1" x1="444.36" y1="26.15" x2="444.36" y2="41.84"/>
  <line class="cls-1" x1="444.36" y1="26.15" x2="462.15" y2="31.99"/>
  <line class="cls-1" x1="462.15" y1="101.24" x2="474.59" y2="97.32"/>
  <line class="cls-1" x1="474.59" y1="54.14" x2="474.91" y2="54.05"/>
  <line class="cls-1" x1="475.77" y1="85.5" x2="493.57" y2="91.35"/>
  <line class="cls-1" x1="493.57" y1="91.35" x2="507.49" y2="86.96"/>
  <line class="cls-1" x1="489.69" y1="11.86" x2="477.25" y2="15.78"/>
  <line class="cls-1" x1="477.25" y1="15.78" x2="477.25" y2="26.79"/>
  <line class="cls-1" x1="495.05" y1="21.63" x2="495.05" y2="60.38"/>
  <line class="cls-1" x1="495.05" y1="60.38" x2="494.81" y2="60.45"/>
  <line class="cls-1" x1="460.14" y1="21.17" x2="444.36" y2="26.15"/>
  <line class="cls-1" x1="474.59" y1="83.14" x2="475.77" y2="85.5"/>
  <line class="cls-1" x1="494.73" y1="60.28" x2="495.05" y2="60.38"/>
  <line class="cls-1" x1="327.71" y1="85.66" x2="327.71" y2="132.14"/>
  <line class="cls-1" x1="110.12" y1="178.44" x2="110.12" y2="176.17"/>
  <line class="cls-1" x1="41.85" y1="186.64" x2="41.85" y2="188.91"/>
  <line class="cls-1" x1="59.65" y1="192.48" x2="59.65" y2="194.75"/>
  <path class="cls-1" d="m41.85,188.91c0,.09,0,.18,0,.27"/>
  <path class="cls-1" d="m85,207.07c-1.77.56-3.3.66-4.6.23"/>
  <path class="cls-1" d="m74.97,189.82v-3.5"/>
  <path class="cls-1" d="m76.92,175.18v3.5"/>
  <path class="cls-1" d="m94.72,181.02v3.5"/>
  <path class="cls-1" d="m76.92,178.68c0,5.8-.65,10.46-1.91,14.05"/>
  <path class="cls-1" d="m94.72,184.53c0,13.19-3.34,20.53-9.72,22.54"/>
  <line class="cls-1" x1="79.89" y1="143.32" x2="97.68" y2="149.16"/>
  <path class="cls-1" d="m79.89,143.32c-3.69-1.21-8-.98-12.61.48-7.08,2.23-13.79,7.2-18.54,15.05"/>
  <line class="cls-1" x1="72.05" y1="221.77" x2="54.25" y2="215.92"/>
  <path class="cls-1" d="m72.05,221.77c3.69,1.21,8.01.97,12.64-.49"/>
  <path class="cls-1" d="m76.88,172.36c.03.89.04,1.83.04,2.81"/>
  <line class="cls-1" x1="153.76" y1="117.69" x2="153.76" y2="123.95"/>
  <line class="cls-1" x1="153.76" y1="117.69" x2="171.55" y2="123.53"/>
  <line class="cls-1" x1="171.55" y1="192.79" x2="183.99" y2="188.87"/>
  <line class="cls-1" x1="183.99" y1="145.69" x2="184.3" y2="145.59"/>
  <line class="cls-1" x1="185.17" y1="177.05" x2="202.97" y2="182.89"/>
  <line class="cls-1" x1="202.97" y1="182.89" x2="216.89" y2="178.51"/>
  <line class="cls-1" x1="199.09" y1="103.41" x2="186.65" y2="107.33"/>
  <line class="cls-1" x1="186.65" y1="107.33" x2="186.65" y2="118.33"/>
  <line class="cls-1" x1="204.44" y1="113.17" x2="204.44" y2="151.92"/>
  <line class="cls-1" x1="204.44" y1="151.92" x2="204.21" y2="151.99"/>
  <line class="cls-1" x1="169.54" y1="112.72" x2="153.76" y2="117.69"/>
  <line class="cls-1" x1="183.99" y1="174.69" x2="185.17" y2="177.05"/>
  <line class="cls-1" x1="204.13" y1="151.82" x2="204.44" y2="151.92"/>
  <line class="cls-1" x1=".25" y1="166.04" x2=".25" y2="235.3"/>
  <line class="cls-1" x1=".25" y1="235.3" x2="18.04" y2="241.14"/>
  <line class="cls-1" x1=".25" y1="166.04" x2="18.04" y2="171.89"/>
  <line class="cls-1" x1="18.04" y1="241.14" x2="32.66" y2="236.54"/>
  <line class="cls-1" x1="32.66" y1="236.54" x2="32.66" y2="210.46"/>
  <line class="cls-1" x1="49.31" y1="205.22" x2="49.31" y2="191.62"/>
  <line class="cls-1" x1="53.97" y1="174.48" x2="53.97" y2="160.57"/>
  <line class="cls-1" x1="36.18" y1="154.73" x2=".25" y2="166.04"/>
  <path class="cls-1" d="m44.82,206.63c2.18,4.98,5.44,7.98,9.43,9.29"/>
  <path class="cls-1" d="m42.37,178.14c-.34,2.68-.51,5.51-.51,8.5"/>
  <path class="cls-1" d="m107.11,197.91c.62.35,1.28.63,1.99.86"/>
  <line class="cls-1" x1="158.65" y1="188.55" x2="171.55" y2="192.79"/>
  <line class="cls-1" x1="454.3" y1="70.02" x2="454.3" y2="67.75"/>
  <line class="cls-1" x1="403.83" y1="84.06" x2="403.83" y2="86.33"/>
  <path class="cls-1" d="m429.18,98.65c-1.77.56-3.3.66-4.6.23"/>
  <path class="cls-1" d="m419.15,81.4v-3.5"/>
  <path class="cls-1" d="m421.11,66.76v3.5"/>
  <path class="cls-1" d="m438.9,72.6v3.5"/>
  <path class="cls-1" d="m421.11,70.26c0,5.8-.65,10.46-1.91,14.05"/>
  <path class="cls-1" d="m438.9,76.11c0,13.19-3.34,20.53-9.72,22.54"/>
  <line class="cls-1" x1="424.07" y1="34.9" x2="441.86" y2="40.74"/>
  <path class="cls-1" d="m424.07,34.9c-3.69-1.21-8-.98-12.61.48-7.46,2.35-14.5,7.74-19.28,16.32"/>
  <line class="cls-1" x1="416.23" y1="113.35" x2="398.43" y2="107.5"/>
  <path class="cls-1" d="m416.23,113.35c3.69,1.21,8.01.97,12.64-.49"/>
  <path class="cls-1" d="m421.06,63.94c.03.89.04,1.83.04,2.81"/>
  <line class="cls-1" x1="229.03" y1="93.98" x2="208.97" y2="100.3"/>
  <line class="cls-1" x1="208.97" y1="100.3" x2="226.76" y2="106.14"/>
  <line class="cls-1" x1="246.82" y1="99.82" x2="226.76" y2="106.14"/>
  <line class="cls-1" x1="208.97" y1="100.3" x2="208.97" y2="106.65"/>
  <line class="cls-1" x1="226.76" y1="175.39" x2="246.9" y2="169.05"/>
  <line class="cls-1" x1="272.88" y1="126.96" x2="272.88" y2="124.59"/>
  <path class="cls-1" d="m246.59,155.44c-1.74.55-3.47,1.09-5.21,1.64"/>
  <path class="cls-1" d="m241.38,115.24c1.61-.51,3.21-1.01,4.82-1.52"/>
  <path class="cls-1" d="m246.2,113.72c2.26-.71,4.22-.91,5.84-.38"/>
  <path class="cls-1" d="m257.48,129.13v3.5"/>
  <path class="cls-1" d="m257.48,132.64c0,14.53-3.58,20.5-10.89,22.8"/>
  <line class="cls-1" x1="243.82" y1="93.05" x2="261.62" y2="98.9"/>
  <path class="cls-1" d="m243.82,93.05c-4-1.31-8.98-.91-14.79.92"/>
  <path class="cls-1" d="m532.29,80.28c13.53-4.26,20.69-14.55,20.69-29.39,0-9.98-2.56-14.5-7.38-16.08"/>
  <line class="cls-1" x1="538.67" y1="34.17" x2="534.78" y2="34.46"/>
  <line class="cls-1" x1="532.08" y1=".99" x2="549.87" y2="6.83"/>
  <line class="cls-1" x1="549.87" y1="20.75" x2="549.87" y2="6.83"/>
  <path class="cls-1" d="m532.08.99c-3.11-.98-7.15-1.35-15.47,1.27-7.77,2.45-13.09,7.08-16.16,13.14"/>
  <line class="cls-1" x1="528.41" y1="53.06" x2="532.29" y2="52.87"/>
  <path class="cls-1" d="m545.6,34.81c-1.95-.64-4.27-.8-6.93-.64"/>
  <path class="cls-1" d="m522.32,52.51c1.76.58,3.8.71,6.08.56"/>
  <line class="cls-1" x1="528.68" y1="29.25" x2="545.6" y2="34.81"/>
  <path class="cls-1" d="m520.87,52.03c-.15,3.91-2.45,6.85-8.08,8.62-1.88.59-3.63.99-5.29,1.22"/>
  <path class="cls-1" d="m515.11,81.57c3.73,1.5,9.88,1.01,17.19-1.29"/>
  <line class="cls-1" x1="265.31" y1="155.88" x2="276.76" y2="159.64"/>
  <line class="cls-1" x1="448.1" y1="96.63" x2="462.15" y2="101.24"/>
  <path class="cls-1" d="m395.82,106.34c.83.48,1.7.87,2.61,1.16"/>
  <line class="cls-1" x1="216.89" y1="172.15" x2="226.76" y2="175.39"/>
  <line class="cls-1" x1="507.49" y1="64.95" x2="515.11" y2="67.46"/>
  <line class="cls-1" x1="507.49" y1="79.07" x2="515.11" y2="81.57"/>
  <path class="cls-1" d="m140.29,203.77c14.85-4.68,21.7-15.59,21.7-32.81"/>
  <line class="cls-1" x1="144.19" y1="120.8" x2="161.98" y2="126.65"/>
  <line class="cls-1" x1="131.13" y1="124.92" x2="148.92" y2="130.77"/>
  <line class="cls-1" x1="161.98" y1="126.65" x2="148.92" y2="130.77"/>
  <line class="cls-1" x1="114.48" y1="130.16" x2="132.28" y2="136.01"/>
  <line class="cls-1" x1="99.79" y1="134.79" x2="117.58" y2="140.64"/>
  <line class="cls-1" x1="132.28" y1="136.01" x2="117.58" y2="140.64"/>
  <line class="cls-1" x1="117.58" y1="140.64" x2="117.58" y2="185.05"/>
  <path class="cls-1" d="m117.58,185.05c0,17.21,7.62,23.47,22.71,18.71"/>
  <path class="cls-1" d="m136.16,189.79c-2.62-.86-3.88-4.06-3.88-10.09"/>
  <line class="cls-1" x1="345.51" y1="82.65" x2="345.51" y2="137.99"/>
  <line class="cls-1" x1="360.2" y1="78.02" x2="373.89" y2="73.71"/>
  <line class="cls-1" x1="356.1" y1="53.95" x2="373.89" y2="59.79"/>
  <line class="cls-1" x1="373.89" y1="59.79" x2="331.74" y2="73.07"/>
  <line class="cls-1" x1="313.95" y1="81.14" x2="331.74" y2="86.98"/>
  <line class="cls-1" x1="331.74" y1="73.07" x2="331.74" y2="86.98"/>
  <line class="cls-1" x1="331.74" y1="86.98" x2="345.51" y2="82.65"/>
  <line class="cls-1" x1="381.12" y1="57.52" x2="381.12" y2="126.77"/>
  <line class="cls-1" x1="363.33" y1="51.67" x2="381.12" y2="57.52"/>
  <line class="cls-1" x1="378.03" y1="47.04" x2="395.82" y2="52.89"/>
  <line class="cls-1" x1="395.82" y1="122.14" x2="395.82" y2="52.89"/>
  <line class="cls-1" x1="395.82" y1="52.89" x2="381.12" y2="57.52"/>
  <line class="cls-1" x1="295.04" y1="84.63" x2="276.76" y2="159.64"/>
  <line class="cls-1" x1="293.25" y1="140.74" x2="310.36" y2="135.35"/>
  <line class="cls-1" x1="310.36" y1="135.35" x2="313.86" y2="147.96"/>
  <line class="cls-1" x1="310.67" y1="79.71" x2="295.04" y2="84.63"/>
  <line class="cls-1" x1="296.05" y1="127.39" x2="301.57" y2="102.67"/>
  <line class="cls-1" x1="297.57" y1="120.59" x2="307.4" y2="123.82"/>
  <line class="cls-1" x1="307.4" y1="123.82" x2="296.05" y2="127.39"/>
  <line class="cls-1" x1="462.15" y1="31.99" x2="462.15" y2="101.24"/>
  <line class="cls-1" x1="474.59" y1="97.32" x2="474.59" y2="54.14"/>
  <line class="cls-1" x1="474.91" y1="54.05" x2="493.57" y2="91.35"/>
  <line class="cls-1" x1="489.69" y1="11.86" x2="507.49" y2="17.71"/>
  <line class="cls-1" x1="507.49" y1="86.96" x2="507.49" y2="17.71"/>
  <line class="cls-1" x1="477.25" y1="15.78" x2="495.05" y2="21.63"/>
  <line class="cls-1" x1="507.49" y1="17.71" x2="495.05" y2="21.63"/>
  <line class="cls-1" x1="460.14" y1="21.17" x2="477.94" y2="27.02"/>
  <line class="cls-1" x1="494.81" y1="60.45" x2="477.94" y2="27.02"/>
  <line class="cls-1" x1="477.94" y1="27.02" x2="462.15" y2="31.99"/>
  <path class="cls-1" d="m84.69,221.28c13.38-4.21,25.43-18.21,25.43-42.84"/>
  <path class="cls-1" d="m110.12,176.17c0-16.2-4.97-24.56-12.43-27.01"/>
  <path class="cls-1" d="m59.65,194.75c0,16.2,4.94,24.57,12.4,27.02"/>
  <path class="cls-1" d="m74.97,186.32c0-13.09,3.34-20.43,9.8-22.46,1.76-.55,3.27-.64,4.55-.22"/>
  <path class="cls-1" d="m97.68,149.16c-3.69-1.21-8-.98-12.61.47-13.38,4.21-25.43,18.21-25.43,42.84"/>
  <path class="cls-1" d="m80.4,207.3c-3.62-1.19-5.43-6.48-5.43-17.48"/>
  <path class="cls-1" d="m89.31,163.63c3.69,1.21,5.41,6.67,5.41,17.39"/>
  <line class="cls-1" x1="171.55" y1="123.53" x2="171.55" y2="192.79"/>
  <line class="cls-1" x1="183.99" y1="188.87" x2="183.99" y2="145.69"/>
  <line class="cls-1" x1="184.3" y1="145.59" x2="202.97" y2="182.89"/>
  <line class="cls-1" x1="199.09" y1="103.41" x2="216.89" y2="109.25"/>
  <line class="cls-1" x1="216.89" y1="178.51" x2="216.89" y2="109.25"/>
  <line class="cls-1" x1="186.65" y1="107.33" x2="204.44" y2="113.17"/>
  <line class="cls-1" x1="216.89" y1="109.25" x2="204.44" y2="113.17"/>
  <line class="cls-1" x1="169.54" y1="112.72" x2="187.34" y2="118.56"/>
  <line class="cls-1" x1="204.21" y1="151.99" x2="187.34" y2="118.56"/>
  <line class="cls-1" x1="187.34" y1="118.56" x2="171.55" y2="123.53"/>
  <line class="cls-1" x1="18.04" y1="171.89" x2="18.04" y2="241.14"/>
  <line class="cls-1" x1="32.66" y1="210.46" x2="49.31" y2="205.22"/>
  <line class="cls-1" x1="32.66" y1="186.15" x2="49.31" y2="191.62"/>
  <line class="cls-1" x1="49.31" y1="191.62" x2="32.66" y2="196.86"/>
  <line class="cls-1" x1="32.66" y1="196.86" x2="32.66" y2="181.2"/>
  <line class="cls-1" x1="32.66" y1="181.2" x2="53.97" y2="174.48"/>
  <line class="cls-1" x1="36.18" y1="154.73" x2="53.97" y2="160.57"/>
  <line class="cls-1" x1="53.97" y1="160.57" x2="18.04" y2="171.89"/>
  <path class="cls-1" d="m428.87,112.86c13.38-4.21,25.43-18.21,25.43-42.84"/>
  <path class="cls-1" d="m454.3,67.75c0-16.2-4.97-24.56-12.43-27.01"/>
  <path class="cls-1" d="m403.83,86.33c0,16.2,4.94,24.57,12.4,27.02"/>
  <path class="cls-1" d="m419.15,77.9c0-13.09,3.34-20.43,9.8-22.46,1.76-.55,3.27-.64,4.55-.22"/>
  <path class="cls-1" d="m441.86,40.74c-3.69-1.21-8-.98-12.61.48-13.38,4.21-25.43,18.21-25.43,42.84"/>
  <path class="cls-1" d="m424.58,98.88c-3.62-1.19-5.43-6.48-5.43-17.48"/>
  <path class="cls-1" d="m433.49,55.21c3.69,1.21,5.41,6.67,5.41,17.39"/>
  <line class="cls-1" x1="226.76" y1="106.14" x2="226.76" y2="175.39"/>
  <path class="cls-1" d="m246.9,169.05c16.25-5.12,25.97-18.69,25.97-42.09"/>
  <path class="cls-1" d="m272.88,124.59c0-15.33-4.03-23.32-11.26-25.69"/>
  <path class="cls-1" d="m241.38,157.08v-41.84"/>
  <path class="cls-1" d="m261.62,98.9c-4-1.31-8.98-.91-14.79.92"/>
  <path class="cls-1" d="m252.04,113.35c3.51,1.15,5.43,5.71,5.43,15.79"/>
  <line class="cls-1" x1="529.06" y1="32.58" x2="534.78" y2="34.46"/>
  <path class="cls-1" d="m534.78,34.46c-1.68.08-2.95,0-3.89-.31"/>
  <path class="cls-1" d="m549.87,6.83c-3.11-.98-7.15-1.35-15.47,1.27-13.22,4.16-19.36,14.65-19.36,27.74,0,10.54,2.66,15.14,7.29,16.67"/>
  <path class="cls-1" d="m532.29,52.87c1.9-.1,3.27-.04,4.24.28"/>
  <line class="cls-1" x1="515.11" y1="67.46" x2="515.11" y2="81.57"/>
  <path class="cls-1" d="m530.89,34.15c-1.62-.53-2.25-1.75-2.25-4.04,0-4.02,2.41-6.74,7.15-8.23,5.91-1.86,10.42-1.63,14.08-1.14"/>
  <line class="cls-1" x1="522.32" y1="52.51" x2="507.5" y2="47.64"/>
  <line class="cls-1" x1="161.98" y1="170.96" x2="161.98" y2="126.65"/>
</svg>