<?xml version="1.0" encoding="UTF-8"?>
<svg xmlns="http://www.w3.org/2000/svg" xmlns:xlink="http://www.w3.org/1999/xlink" viewBox="0 0 669.33 685.56">
  <defs>
    <style>
      .cls-1 {
        clip-path: url(#clippath);
      }

      .cls-2, .cls-3, .cls-4, .cls-5, .cls-6 {
        fill: none;
      }

      .cls-2, .cls-7, .cls-8, .cls-9, .cls-10 {
        stroke-width: 0px;
      }

      .cls-11 {
        fill: #12eee2;
      }

      .cls-11, .cls-12, .cls-13, .cls-14, .cls-15, .cls-16, .cls-17, .cls-18, .cls-19, .cls-20, .cls-21, .cls-3, .cls-22, .cls-23, .cls-24, .cls-4, .cls-5, .cls-25, .cls-26, .cls-27, .cls-28, .cls-29, .cls-30, .cls-6 {
        stroke-width: .25px;
      }

      .cls-11, .cls-12, .cls-13, .cls-14, .cls-15, .cls-16, .cls-17, .cls-18, .cls-19, .cls-20, .cls-21, .cls-3, .cls-22, .cls-23, .cls-24, .cls-5, .cls-25, .cls-26, .cls-27, .cls-28, .cls-29, .cls-30 {
        stroke: #231f20;
      }

      .cls-11, .cls-12, .cls-13, .cls-14, .cls-15, .cls-16, .cls-17, .cls-18, .cls-19, .cls-20, .cls-21, .cls-22, .cls-23, .cls-24, .cls-25, .cls-26, .cls-27, .cls-28, .cls-29, .cls-30, .cls-6 {
        stroke-miterlimit: 10;
      }

      .cls-11, .cls-12, .cls-13, .cls-14, .cls-3, .cls-7, .cls-25, .cls-26, .cls-31, .cls-27, .cls-28, .cls-29, .cls-30 {
        opacity: .5;
      }

      .cls-12 {
        fill: #db4939;
      }

      .cls-13, .cls-17 {
        fill: #00c09a;
      }

      .cls-14, .cls-15 {
        fill: #02857d;
      }

      .cls-16 {
        fill: #016578;
      }

      .cls-18 {
        fill: #80cf3e;
      }

      .cls-19 {
        fill: #81962e;
      }

      .cls-20, .cls-28, .cls-10 {
        fill: #fff;
      }

      .cls-21 {
        fill: #ff9e3a;
      }

      .cls-3, .cls-4, .cls-5 {
        stroke-linecap: round;
        stroke-linejoin: round;
      }

      .cls-22 {
        fill: #bbd943;
      }

      .cls-23 {
        fill: #27804e;
      }

      .cls-24, .cls-26 {
        fill: #32a263;
      }

      .cls-4, .cls-6 {
        stroke: #221f1f;
      }

      .cls-7 {
        fill: #d7ad3b;
      }

      .cls-25 {
        fill: #b4ff7a;
      }

      .cls-27 {
        fill: #e4d390;
      }

      .cls-29 {
        fill: #ffb8a4;
      }

      .cls-30 {
        fill: url(#_10_dpi_10_);
      }

      .cls-9 {
        fill: #231f20;
      }
    </style>
    <pattern id="_10_dpi_10_" data-name="10 dpi 10%" x="0" y="0" width="28.8" height="28.8" patternTransform="translate(46.72 715.82)" patternUnits="userSpaceOnUse" viewBox="0 0 28.8 28.8">
      <g>
        <rect class="cls-2" y="0" width="28.8" height="28.8"/>
        <g>
          <circle class="cls-9" cx="28.8" cy="28.8" r=".72"/>
          <path class="cls-9" d="m14.4,29.52c.4,0,.72-.32.72-.72s-.32-.72-.72-.72-.72.32-.72.72.32.72.72.72Z"/>
          <path class="cls-9" d="m28.8,15.12c.4,0,.72-.32.72-.72s-.32-.72-.72-.72-.72.32-.72.72.32.72.72.72Z"/>
          <path class="cls-9" d="m14.4,15.12c.4,0,.72-.32.72-.72s-.32-.72-.72-.72-.72.32-.72.72.32.72.72.72Z"/>
          <path class="cls-9" d="m7.2,22.32c.4,0,.72-.32.72-.72s-.32-.72-.72-.72-.72.32-.72.72.32.72.72.72Z"/>
          <path class="cls-9" d="m21.6,22.32c.4,0,.72-.32.72-.72s-.32-.72-.72-.72-.72.32-.72.72.32.72.72.72Z"/>
          <path class="cls-9" d="m7.2,7.92c.4,0,.72-.32.72-.72s-.32-.72-.72-.72-.72.32-.72.72.32.72.72.72Z"/>
          <path class="cls-9" d="m21.6,7.92c.4,0,.72-.32.72-.72s-.32-.72-.72-.72-.72.32-.72.72.32.72.72.72Z"/>
        </g>
        <g>
          <circle class="cls-9" cx="0" cy="28.8" r=".72"/>
          <path class="cls-9" d="m0,15.12c.4,0,.72-.32.72-.72s-.32-.72-.72-.72-.72.32-.72.72.32.72.72.72Z"/>
        </g>
        <g>
          <path class="cls-9" d="m28.8.72c.4,0,.72-.32.72-.72s-.32-.72-.72-.72-.72.32-.72.72.32.72.72.72Z"/>
          <path class="cls-9" d="m14.4.72c.4,0,.72-.32.72-.72s-.32-.72-.72-.72-.72.32-.72.72.32.72.72.72Z"/>
        </g>
        <path class="cls-9" d="m0,.72c.4,0,.72-.32.72-.72s-.32-.72-.72-.72-.72.32-.72.72.32.72.72.72Z"/>
      </g>
    </pattern>
    <clipPath id="clippath">
      <rect class="cls-2" x="73.21" y="66.05" width="31.51" height="42.18" transform="translate(177.93 174.28) rotate(-180)"/>
    </clipPath>
  </defs>
  <g id="Layer_01" data-name="Layer 01">
    <polygon class="cls-13" points="249.55 134.18 121.44 24.47 50 61.16 50 302.65 249.55 199.24 249.55 134.18"/>
    <polyline class="cls-18" points="375.38 183.79 48.09 351.39 7.05 342.03 7.05 337.65 459.82 102.98 459.82 140.55"/>
    <polygon class="cls-20" points="182.15 274.52 182.15 264.53 284.88 211.29 284.88 221.92 284.55 222.09 182.15 274.52"/>
    <polygon class="cls-13" points="182.15 274.52 182.15 264.53 284.88 211.29 284.88 221.92 284.55 222.09 182.15 274.52"/>
    <polygon class="cls-20" points="254.22 227.18 284.88 211.29 284.88 221.92 249.55 240.01 249.55 229.6 254.22 227.18"/>
    <polygon class="cls-16" points=".3 394.97 7.05 392.02 7.05 685.43 .3 685.43 .3 394.97"/>
    <rect class="cls-29" x="287.28" y="10.67" width="67.48" height="28.01"/>
    <polyline class="cls-29" points="497.21 119.04 497.21 38.67 287.28 38.67 287.28 179.69"/>
    <rect class="cls-25" x="126.63" y=".12" width="40.86" height="11.07"/>
    <polygon class="cls-7" points="287.28 49.99 241.98 11.2 126.63 11.2 254.74 120.91 287.28 120.91 287.28 49.99"/>
    <rect class="cls-28" x="65.11" y="57.12" width="39.62" height="51.11"/>
    <rect class="cls-12" x="461.45" y="65.07" width="3.34" height="13.65"/>
    <polygon class="cls-23" points="379.7 367.85 455.5 367.85 455.5 386.89 459.82 386.89 459.82 130.52 459.82 125.69 375.38 168.03 375.38 386.89 379.7 386.89 379.7 367.85"/>
    <polyline class="cls-18" points="379.7 320.36 379.7 281.52 455.5 281.52 455.5 320.36"/>
    <rect class="cls-18" x="379.7" y="324.68" width="75.79" height="38.85"/>
    <rect class="cls-18" x="379.7" y="238.35" width="75.79" height="38.84"/>
    <rect class="cls-18" x="379.7" y="195.18" width="75.79" height="38.85"/>
    <polyline class="cls-21" points="455.5 320.36 379.7 320.36 455.5 320.36"/>
    <line class="cls-5" x1="379.7" y1="324.68" x2="455.5" y2="324.68"/>
    <line class="cls-5" x1="455.5" y1="142.76" x2="379.7" y2="181.58"/>
    <rect class="cls-3" x="356.9" y="82.07" width="41.21" height="23.14"/>
    <rect class="cls-12" x="398.11" y="82.07" width="3.34" height="23.14"/>
    <rect class="cls-3" x="376.91" y="65.07" width="40.32" height="13.65"/>
    <rect class="cls-12" x="417.23" y="65.07" width="3.34" height="13.65"/>
    <rect class="cls-3" x="484.16" y="45.71" width="13.05" height="16.02"/>
    <polygon class="cls-12" points="397.78 122.42 287.28 122.42 287.28 125.76 391.34 125.76 397.78 122.42"/>
    <polygon class="cls-12" points="351.21 146.56 287.28 146.56 287.28 149.9 344.76 149.9 351.21 146.56"/>
    <polygon class="cls-12" points="431 105.21 287.28 105.21 287.28 108.55 424.56 108.55 431 105.21"/>
    <rect class="cls-12" x="480.82" y="45.71" width="3.34" height="16.02"/>
    <rect class="cls-12" x="438.86" y="45.71" width="3.34" height="16.02"/>
    <line class="cls-3" x1="176.14" y1="53.6" x2="287.28" y2="53.6"/>
    <line class="cls-5" x1="216.59" y1="88.24" x2="287.28" y2="88.24"/>
    <line class="cls-3" x1="197.55" y1="71.93" x2="287.28" y2="71.93"/>
    <line class="cls-5" x1="236.41" y1="105.21" x2="287.28" y2="105.21"/>
    <line class="cls-3" x1="157.76" y1="37.86" x2="273.12" y2="37.86"/>
    <line class="cls-3" x1="126.63" y1="11.2" x2="241.98" y2="11.2"/>
    <line class="cls-3" x1="218.7" y1="11.2" x2="287.28" y2="69.93"/>
    <line class="cls-3" x1="195.48" y1="11.2" x2="287.28" y2="89.81"/>
    <line class="cls-3" x1="175.76" y1="11.2" x2="287.28" y2="106.7"/>
    <line class="cls-3" x1="148.99" y1="11.2" x2="241.98" y2="11.2"/>
    <line class="cls-3" x1="148.99" y1="11.2" x2="277.1" y2="120.91"/>
    <rect class="cls-26" x="158.83" y="3.71" width="8.66" height="7.49"/>
    <rect class="cls-12" x="353.56" y="45.71" width="3.34" height="16.02"/>
    <rect class="cls-3" x="287.28" y="45.71" width="28.16" height="16.02"/>
    <line class="cls-21" x1="475.19" y1="412.59" x2="662.03" y2="412.59"/>
    <rect class="cls-5" x="59.75" y="108.23" width="44.97" height="2.61"/>
    <rect class="cls-14" x="65.11" y="57.12" width="6.39" height="51.11"/>
    <polygon class="cls-11" points="85.83 284.09 85.83 224.49 64.03 224.49 64.03 295.38 85.83 284.09"/>
    <polygon class="cls-14" points="70.45 224.49 70.45 292.05 64.03 295.38 64.03 224.49 70.45 224.49"/>
    <rect class="cls-25" x="126.63" y=".12" width="40.86" height="3.58"/>
    <polygon class="cls-27" points="287.28 128.38 251.64 128.38 123.52 18.66 39.1 62.03 39.1 56.16 123.52 12.79 126.63 11.2 254.74 120.91 287.28 120.91 287.28 128.38"/>
    <polygon class="cls-26" points="287.28 179.69 249.55 199.24 249.55 134.18 287.28 134.18 287.28 179.69"/>
    <polygon class="cls-3" points="497.21 119.04 459.73 90.32 287.28 179.69 287.28 45.71 497.21 45.71 497.21 119.04"/>
    <rect class="cls-12" x="287.28" y="38.67" width="209.92" height="7.04"/>
    <rect class="cls-3" x="316.25" y="15.48" width="38.52" height="23.19"/>
    <rect class="cls-12" x="287.28" y="15.48" width="28.96" height="23.19"/>
    <rect class="cls-12" x="287.28" y="10.67" width="67.48" height="4.82"/>
    <polygon class="cls-19" points="636.93 276.3 459.82 140.55 459.82 102.98 636.93 238.73 636.93 276.3"/>
    <polygon class="cls-18" points="636.93 238.73 459.82 102.98 459.73 90.32 636.85 226.07 636.93 238.73"/>
    <polygon class="cls-25" points="558.77 39.41 525.31 56.75 525.31 140.58 558.77 166.23 558.77 39.41"/>
    <polygon class="cls-26" points="599.91 197.76 599.91 68.56 558.77 39.41 558.77 139.04 558.77 166.23 599.91 197.76"/>
    <polygon class="cls-5" points="39.99 426.9 39.99 583.59 17.44 583.59 17.44 417.54 39.99 426.9"/>
    <polygon class="cls-17" points="48.42 412.59 48.42 671.21 7.05 671.21 7.05 397.14 48.42 412.59"/>
    <polygon class="cls-15" points="462.78 412.59 48.42 412.59 7.05 397.14 462.78 397.14 462.78 412.59"/>
    <rect class="cls-23" x="7.05" y="386.89" width="455.73" height="10.25"/>
    <rect class="cls-23" x="475.19" y="386.89" width="186.83" height="10.25"/>
    <rect class="cls-23" x="662.03" y="386.89" width="7.18" height="284.32"/>
    <rect class="cls-16" x="462.78" y="386.89" width="12.42" height="284.32"/>
    <rect class="cls-16" x="7.05" y="671.21" width="468.14" height="14.22"/>
    <polygon class="cls-18" points="7.05 342.03 48.09 351.39 48.09 386.89 7.05 386.89 7.05 342.03"/>
    <polygon class="cls-23" points=".3 336.72 7.05 336.11 7.05 397.14 .3 397.14 .3 336.72"/>
    <polygon class="cls-10" points="34.5 553.88 34.5 583.59 17.44 583.59 17.44 553.88 17.44 428.26 34.5 435.34 34.5 553.88"/>
    <line class="cls-5" x1="636.85" y1="226.07" x2="636.93" y2="276.3"/>
    <polyline class="cls-3" points="39.1 62.03 50 62.03 50 61.16 121.44 24.47 249.55 134.18 287.28 134.18"/>
    <line class="cls-3" x1="138.34" y1="21.23" x2="253.7" y2="21.23"/>
    <rect class="cls-12" x="398.13" y="45.71" width="3.34" height="16.02"/>
    <rect class="cls-12" x="315.45" y="45.71" width="3.34" height="16.02"/>
    <rect class="cls-12" x="287.28" y="61.73" width="209.92" height="3.34"/>
    <rect class="cls-12" x="287.28" y="78.73" width="209.92" height="3.34"/>
    <rect class="cls-12" x="373.57" y="65.07" width="3.34" height="13.65"/>
    <rect class="cls-12" x="353.56" y="82.07" width="3.34" height="23.14"/>
    <polygon class="cls-18" points="455.5 190.86 379.7 190.86 379.7 170.7 455.5 132.69 455.5 190.86"/>
    <polygon class="cls-22" points="459.82 140.55 631.19 271.9 631.19 386.89 459.82 386.89 459.82 140.55"/>
    <polygon class="cls-18" points="636.93 238.73 636.93 386.89 631.19 386.89 631.19 234.32 636.93 238.73"/>
    <polygon class="cls-30" points="599.91 197.76 599.91 68.56 558.77 39.41 558.77 139.04 558.77 166.23 599.91 197.76"/>
    <line class="cls-5" x1="48.09" y1="386.89" x2="48.09" y2="351.39"/>
    <polygon class="cls-24" points="48.09 386.89 48.09 351.39 375.38 183.79 375.38 386.89 48.09 386.89"/>
    <rect class="cls-18" x="379.7" y="367.85" width="75.79" height="19.05"/>
    <rect class="cls-12" x="364.68" y="108.55" width="3.34" height="13.88"/>
    <rect class="cls-12" x="320.13" y="108.55" width="3.34" height="13.88"/>
    <rect class="cls-12" x="339.85" y="125.69" width="3.34" height="20.87"/>
    <rect class="cls-12" x="295.3" y="125.69" width="3.34" height="20.87"/>
    <rect class="cls-12" x="309.01" y="82.07" width="3.34" height="23.14"/>
    <polygon class="cls-26" points="254.22 227.18 284.88 211.29 284.88 221.92 249.55 240.01 249.55 229.6 254.22 227.18"/>
    <polygon class="cls-23" points=".3 341.15 .13 328.5 459.73 90.32 459.82 102.98 .3 341.15"/>
    <polygon class="cls-30" points="254.22 227.18 284.88 211.29 284.88 221.92 249.55 240.01 249.55 229.6 254.22 227.18"/>
    <polygon class="cls-30" points="287.28 179.69 249.55 199.24 249.55 134.18 287.28 134.18 287.28 179.69"/>
    <polyline class="cls-18" points="375.38 183.79 375.38 168.03 459.82 125.69 459.82 102.98 330.54 169.98"/>
    <rect class="cls-23" x="475.19" y="671.21" width="194.01" height="14.22"/>
    <rect class="cls-18" x="475.19" y="397.15" width="186.83" height="15.44"/>
    <rect class="cls-24" x="475.19" y="412.59" width="186.83" height="258.62"/>
    <rect class="cls-24" x="74.93" y="451.75" width="10.9" height="0"/>
    <rect class="cls-14" x="48.42" y="412.59" width="414.36" height="258.62"/>
    <polygon class="cls-16" points="17.44 417.54 39.99 426.9 39.99 583.59 34.5 583.59 34.5 435.34 17.44 428.26 17.44 417.54"/>
    <g class="cls-31">
      <path class="cls-8" d="m547.14,367.36c2.15-.92,1.63-2.66,1.38-4.12-1.13-6.63-2.99-13.07-5.7-19.24-1.03-2.34-.62-3.43,1.35-5.12.53-.46.98-1.46.89-2.13-.41-3.09-.89-6.18-1.6-9.2-1.53-6.47-3.41-12.87-4.79-19.37-.77-3.64-.7-7.46-1.26-11.16-2.03-13.35-5.29-26.29-13.28-37.5-.95-1.33-2.74-2.07-4.13-3.09-.53-.39-1.26-.68-1.53-1.2-.84-1.64-1.53-3.36-2.21-5.08-.16-.41-.26-1.11-.03-1.36,1.52-1.69.29-2.66-.89-3.65.71-2.65,2.8-3.71,5.09-3.88,2.71-.21,4.11-1.86,5.76-3.89-3-1.53-6.1-1.65-9.15-1.52-1.86.08-3.75.71-5.53,1.35-1.41.51-2.09,1.56-1.93,3.34.17,1.92-.44,3.89-.41,5.83.05,3.78.48,7.39,4.69,9.19,1.6.68,1.67,2.52.76,4.05-3.61,6.01-6.1,12.46-7.17,19.42-.34,2.18-.16,4.59-1.07,6.48-1.36,2.81-3.24,5.46-5.32,7.79-4.59,5.13-9.46,10-14.16,15.02-.42.44-.46,1.24-.68,1.87.58.1,1.17.3,1.75.29,1.94-.01,3.91.14,5.8-.2,4.15-.74,8.25-1.74,12.36-2.64.34-.07.67-.16,1.35-.32.13,1.2.36,2.29.34,3.37-.08,6.32-.32,12.65-.3,18.97,0,2.97.4,5.95.79,8.9.08.58.94,1.07,1.53,1.7,0,3.98-.11,8.24.03,12.5.19,6.02.71,12.04.8,18.07.04,2.94-.51,5.91-.93,8.84-.06.43-.85.93-1.39,1.08-4.4,1.23-8.84,2.35-13.24,3.6-.93.26-1.74.95-2.61,1.44.07.27.14.55.21.82,7.24,0,14.48,0,22.03,0,.13-1.05.37-2.5.48-3.95.25-3.11.48-6.21.64-9.33.09-1.76,1.25-3.01,1.85-4.49,1.14-2.86,1.92-5.94,2.31-8.99.77-6.05,1.18-12.14,1.76-18.48,1.53-.24,3.33-.56,5.14-.75.36-.04.9.37,1.14.72,1.07,1.56,2.22,3.1,3.07,4.78,3.37,6.7,6.63,13.45,9.96,20.17.31.62.81,1.15,1.2,1.7-.52.78-1.47,1.58-1.43,2.31.05.84.98,1.64,1.54,2.45.84,1.21,1.82,2.35,2.53,3.64,1.66,3.03.88,5.09-2.42,5.98-4.5,1.21-9.07,2.19-13.61,3.27-.19.05-.36.14-1.04.41,1.93,1.37,3.8,1.63,5.71,1.54,2.19-.11,4.38-.35,6.56-.59,3.38-.37,6.76-.75,10.14-1.18,2.38-.3,3.43-1.7,2.63-4.03-1.33-3.88-2.96-7.66-4.48-11.48-.36-.92-.78-1.82-1.28-2.95Z"/>
    </g>
    <g class="cls-31">
      <path class="cls-8" d="m119.53,662.29c2.86,2.44,5.7,4.88,8.55,7.32-.09.22-.18.44-.27.67-.87-.07-1.73-.14-2.6-.2-3.7-.27-7.39-.6-11.09-.78-2.55-.12-3.18-.77-2.15-3.11,2.12-4.81,4.41-9.55,6.64-14.32.27-.57.56-1.14.86-1.74-.92-.66-1.79-1.27-2.6-1.85,5.09-13.85,10.16-27.64,15.21-41.37-1.78,0-3.74-.1-5.68.03-1.78.12-2.82-.28-2.98-2.31-.22-2.77-.67-5.51-1.02-8.24-4.15.08-3.95,5.03-7.15,6.64.34-1.41.56-2.67.95-3.87.51-1.54.81-2.85-.47-4.32-.61-.7-.67-2.24-.42-3.27,1.38-5.9,2.39-11.96,4.53-17.58,5.48-14.33,11.54-28.44,17.25-42.69,1.1-2.75,1.66-5.73,2.61-9.11-2.04-1-4.13-1.93-6.11-3.06-.8-.45-1.85-1.32-1.9-2.06-.22-3.03-.49-6.15.01-9.1.52-3.05,2.88-3.67,5.47-1.88,1,.69,1.8,1.71,2.85,2.24,1.54.77,3.21,1.67,4.86,1.74,5.22.24,5.29,2.05,3.8,6.38-.56,1.64-1.07,3.34-1.23,5.05-.32,3.45-1.21,6.41-4.53,8.22-.82.45-1.27,1.58-1.88,2.37,5.59,5.23,8.13,11.82,10.42,18.52,1.27,3.71,2.13,7.56,3.26,11.31.41,1.34.88,2.75,1.68,3.88,4.45,6.3,9.01,12.52,13.5,18.8.47.65.61,1.53,1.02,2.23.29.5.72.95,1.18,1.31,1.1.87,2.26,1.67,3.44,2.53-1.06,1.69-2.26.87-3.36.68-1.25-.22-2.67-1.11-3.32.94-4.64-1.48-9.17-2.93-14.06-4.5.48,4.19.62,8.11,1.43,11.89,1.95,9.1,4.27,18.12,6.32,27.21,1.86,8.28,3.58,16.59,5.29,24.9.24,1.17-.11,2.47.17,3.62.62,2.54,1.43,5.04,2.26,7.53.1.31.79.46,1.24.61,4.36,1.5,8.75,2.94,13.08,4.53.74.27,1.25,1.17,1.87,1.77-.76.43-1.51,1.19-2.29,1.24-3.13.18-6.28.19-9.42.16-2.79-.03-5.57-.15-8.36-.3-1.95-.1-2.9-1.09-2.2-2.72,1.11-2.6.52-5.01-.06-7.52-.49-2.15-.85-4.33-1.29-6.67-2.24.8-2.96-.48-3.72-2.21-3.35-7.62-6.91-15.16-10.26-22.78-1.13-2.57-1.88-5.31-3-8.54-1.31,1.96-2.3,3.39-3.23,4.84-5.68,8.82-11.31,17.67-17.04,26.46-1.1,1.68-3.02,2.7-3.64,4.86-.55,1.89-1.55,3.66-2.41,5.62Z"/>
    </g>
    <rect class="cls-11" x="71.49" y="57.12" width="33.23" height="51.11"/>
    <g class="cls-1">
      <g class="cls-31">
        <path class="cls-8" d="m57.24,201.97c-2.15-.92-1.63-2.66-1.38-4.12,1.13-6.63,2.99-13.07,5.7-19.24,1.03-2.34.62-3.43-1.35-5.12-.53-.46-.98-1.46-.89-2.13.41-3.09.89-6.18,1.6-9.2,1.53-6.47,3.41-12.87,4.79-19.37.77-3.64.7-7.46,1.26-11.16,2.03-13.35,5.29-26.29,13.28-37.5.95-1.33,2.74-2.07,4.13-3.09.53-.39,1.26-.68,1.53-1.2.84-1.64,1.53-3.36,2.21-5.08.16-.41.26-1.11.03-1.36-1.52-1.69-.29-2.66.89-3.65-.71-2.65-2.8-3.71-5.09-3.88-2.71-.21-4.11-1.86-5.76-3.89,3-1.53,6.1-1.65,9.15-1.52,1.86.08,3.75.71,5.53,1.35,1.41.51,2.09,1.56,1.93,3.34-.17,1.92.44,3.89.41,5.83-.05,3.78-.48,7.39-4.69,9.19-1.6.68-1.67,2.52-.76,4.05,3.61,6.01,6.1,12.46,7.17,19.42.34,2.18.16,4.59,1.07,6.48,1.36,2.81,3.24,5.46,5.32,7.79,4.59,5.13,9.46,10,14.16,15.02.42.44.46,1.24.68,1.87-.58.1-1.17.3-1.75.29-1.94-.01-3.91.14-5.8-.2-4.15-.74-8.25-1.74-12.36-2.64-.34-.07-.67-.16-1.35-.32-.13,1.2-.36,2.29-.34,3.37.08,6.32.32,12.65.3,18.97,0,2.97-.4,5.95-.79,8.9-.08.58-.94,1.07-1.53,1.7,0,3.98.11,8.24-.03,12.5-.19,6.02-.71,12.04-.8,18.07-.04,2.94.51,5.91.93,8.84.06.43.85.93,1.39,1.08,4.4,1.23,8.84,2.35,13.24,3.6.93.26,1.74.95,2.61,1.44-.07.27-.14.55-.21.82h-22.03c-.13-1.05-.37-2.5-.48-3.95-.25-3.11-.48-6.21-.64-9.33-.09-1.76-1.25-3.01-1.85-4.49-1.14-2.86-1.92-5.94-2.31-8.99-.77-6.05-1.18-12.14-1.76-18.48-1.53-.24-3.33-.56-5.14-.75-.36-.04-.9.37-1.14.72-1.07,1.56-2.22,3.1-3.07,4.78-3.37,6.7-6.63,13.45-9.96,20.17-.31.62-.81,1.15-1.2,1.7.52.78,1.47,1.58,1.43,2.31-.05.84-.98,1.64-1.54,2.45-.84,1.21-1.82,2.35-2.53,3.64-1.66,3.03-.88,5.09,2.42,5.98,4.5,1.21,9.07,2.19,13.61,3.27.19.05.36.14,1.04.41-1.93,1.37-3.8,1.63-5.71,1.54-2.19-.11-4.38-.35-6.56-.59-3.38-.37-6.76-.75-10.14-1.18-2.38-.3-3.43-1.7-2.63-4.03,1.33-3.88,2.96-7.66,4.48-11.48.36-.92.78-1.82,1.28-2.95Z"/>
      </g>
    </g>
    <g class="cls-31">
      <g>
        <path class="cls-8" d="m533.22,603.7c-3.87,9.64-7.69,19.3-11.65,28.9-2.24,5.44-4.73,10.79-7.1,16.17-.08.18-.16.37-.28.53-1.26,1.7-1.97,4.38-4.62,4.07-3.16-.37-5.93-1.79-7.33-5.02-2.47-5.71-1.91-11.57-.71-17.38,1.78-8.64,5.66-16.34,10.93-23.37,1.54-2.05,2.96-4.2,4.54-6.46-3.53-.96-6.26-2.56-7.79-5.84-1.14-2.46-1.07-4.85-.22-7.33,5.3-15.46,10.59-30.92,15.89-46.38.15-.42.27-.86.46-1.45-3.82.71-7.41.61-10.49-1.82-4.09-3.23-5.98-7.54-5.58-12.71.35-4.5,4.62-7.5,9.55-6.63,3.81.68,6.47-.57,8.22-3.92,1.13-2.16,2.84-2.98,5.24-2.65,1.77.24,3.56.35,5.34.44,1.98.1,2.31,1.36,2.35,2.99.04,1.7-.02,3.27-2.26,3.44-.86.06-1.72.06-2.57.18-2.07.3-2.54,1.55-1.5,3.29.36.6.28,1.66.05,2.39-.72,2.25-1.6,4.44-2.43,6.68,4.35.11,5.21.5,6.18,4.83,2.56,11.49,5.36,22.97,7.07,34.61,1.18,8.06,2.1,16.12,4.52,23.92,1.66,5.38,3.49,10.72,4.85,16.17,2.42,9.69,4.55,19.45,6.77,29.19.65,2.87.23,3.49-2.61,4.21-.9.23-1.83.32-2.71.58-3.09.9-4.09-.28-5.32-2.75-3.38-6.81-6.28-13.81-8.64-21.07-1.99-6.11-4.95-11.91-7.49-17.85-.22.01-.43.02-.65.03Zm-14.79-7.85c.21.12.42.24.63.36,4.5-2.93,6.69-7.81,9.25-12.25,2.5-4.35,5.23-8.71,5.86-13.93-2.47-.16-4.84-.39-7.21-.41-.53,0-1.41.64-1.56,1.16-1.89,6.59-3.68,13.21-5.5,19.82-.48,1.75-.98,3.5-1.47,5.25Z"/>
        <path class="cls-8" d="m586.42,659.2c-2.05.64-4.07,1.4-6.15,1.89-4.88,1.14-9.78,2.17-14.68,3.19-.96.2-1.97.21-2.95.22-1.81.03-3-.89-3.57-2.58-1.29-3.82-2.53-7.65-3.82-11.47-.4-1.2-.32-2,1.17-2.31,2.18-.46,4.31-1.17,6.5-1.53.5-.08,1.43.7,1.69,1.3.74,1.69,1.2,3.49,1.83,5.23.58,1.59,1.76,2.39,3.35,3.05,4.33,1.79,8.9.88,13.31,1.58,1.12.18,2.23.47,3.34.7,0,.24-.02.48-.02.72Z"/>
        <path class="cls-8" d="m529.18,669.92c-1,.35-2,1.01-3.01,1.01-7.6.05-15.21.15-22.8-.15-3.84-.15-4.34-1.25-3.55-5.06.5-2.4,1-4.79,1.57-7.17.63-2.65,2.01-3.67,4.31-3.27,2.79.49,4.37,2.34,4.17,4.87-.01.13-.02.26-.03.4-.48,4.36-.47,4.34,3.93,5.15,4.09.76,8.18,1.54,12.26,2.36,1.05.21,2.06.63,3.08.95.02.3.04.6.06.9Z"/>
        <path class="cls-10" d="m518.43,595.85c.49-1.75.98-3.5,1.47-5.25,1.82-6.61,3.6-13.23,5.5-19.82.15-.51,1.02-1.16,1.56-1.16,2.37.02,4.74.25,7.21.41-.62,5.22-3.36,9.57-5.86,13.93-2.55,4.44-4.74,9.32-9.25,12.25-.21-.12-.42-.24-.63-.36Z"/>
      </g>
    </g>
  </g>
  <g id="lines_over_top" data-name="lines over top">
    <rect class="cls-6" x="287.28" y="10.67" width="67.48" height="28.01"/>
    <polyline class="cls-6" points="497.21 119.04 497.21 38.67 287.28 38.67 287.28 179.69"/>
    <rect class="cls-6" x="126.63" y=".12" width="40.86" height="11.07"/>
    <polygon class="cls-2" points="287.28 49.99 241.98 11.2 126.63 11.2 254.74 120.91 287.28 120.91 287.28 49.99"/>
    <polygon class="cls-6" points="249.55 134.18 121.44 24.47 50 61.16 50 302.65 249.55 199.24 249.55 134.18"/>
    <rect class="cls-6" x="65.11" y="57.12" width="39.62" height="51.11"/>
    <rect class="cls-6" x="461.45" y="65.07" width="3.34" height="13.65"/>
    <polygon class="cls-6" points="379.7 367.85 455.5 367.85 455.5 386.89 459.82 386.89 459.82 130.52 459.82 125.69 375.38 168.03 375.38 386.89 379.7 386.89 379.7 367.85"/>
    <polyline class="cls-6" points="379.7 320.36 379.7 281.52 455.5 281.52 455.5 320.36"/>
    <rect class="cls-6" x="379.7" y="324.68" width="75.79" height="38.85"/>
    <rect class="cls-6" x="379.7" y="238.35" width="75.79" height="38.84"/>
    <rect class="cls-6" x="379.7" y="195.18" width="75.79" height="38.85"/>
    <polyline class="cls-6" points="455.5 320.36 379.7 320.36 455.5 320.36"/>
    <line class="cls-4" x1="379.7" y1="324.68" x2="455.5" y2="324.68"/>
    <polyline class="cls-6" points="375.38 183.79 48.09 351.39 7.05 342.03 7.05 337.65 459.82 102.98 459.82 140.55"/>
    <line class="cls-4" x1="455.5" y1="142.76" x2="379.7" y2="181.58"/>
    <rect class="cls-4" x="356.9" y="82.07" width="41.21" height="23.14"/>
    <rect class="cls-6" x="398.11" y="82.07" width="3.34" height="23.14"/>
    <rect class="cls-4" x="376.91" y="65.07" width="40.32" height="13.65"/>
    <rect class="cls-6" x="417.23" y="65.07" width="3.34" height="13.65"/>
    <rect class="cls-4" x="484.16" y="45.71" width="13.05" height="16.02"/>
    <polygon class="cls-6" points="397.78 122.42 287.28 122.42 287.28 125.76 391.34 125.76 397.78 122.42"/>
    <polygon class="cls-6" points="351.21 146.56 287.28 146.56 287.28 149.9 344.76 149.9 351.21 146.56"/>
    <polygon class="cls-6" points="431 105.21 287.28 105.21 287.28 108.55 424.56 108.55 431 105.21"/>
    <rect class="cls-6" x="480.82" y="45.71" width="3.34" height="16.02"/>
    <rect class="cls-6" x="438.86" y="45.71" width="3.34" height="16.02"/>
    <line class="cls-4" x1="176.14" y1="53.6" x2="287.28" y2="53.6"/>
    <line class="cls-4" x1="216.59" y1="88.24" x2="287.28" y2="88.24"/>
    <line class="cls-4" x1="197.55" y1="71.93" x2="287.28" y2="71.93"/>
    <line class="cls-4" x1="236.41" y1="105.21" x2="287.28" y2="105.21"/>
    <line class="cls-4" x1="157.76" y1="37.86" x2="273.12" y2="37.86"/>
    <line class="cls-4" x1="126.63" y1="11.2" x2="241.98" y2="11.2"/>
    <line class="cls-4" x1="218.7" y1="11.2" x2="287.28" y2="69.93"/>
    <line class="cls-4" x1="195.48" y1="11.2" x2="287.28" y2="89.81"/>
    <line class="cls-4" x1="175.76" y1="11.2" x2="287.28" y2="106.7"/>
    <line class="cls-4" x1="148.99" y1="11.2" x2="241.98" y2="11.2"/>
    <line class="cls-4" x1="148.99" y1="11.2" x2="277.1" y2="120.91"/>
    <rect class="cls-6" x="158.83" y="3.71" width="8.66" height="7.49"/>
    <rect class="cls-6" x="353.56" y="45.71" width="3.34" height="16.02"/>
    <rect class="cls-4" x="287.28" y="45.71" width="28.16" height="16.02"/>
    <line class="cls-4" x1="475.19" y1="412.59" x2="662.03" y2="412.59"/>
    <rect class="cls-4" x="59.75" y="108.23" width="44.97" height="2.61"/>
    <rect class="cls-6" x="65.11" y="57.12" width="6.39" height="51.11"/>
    <polygon class="cls-6" points="85.83 284.09 85.83 224.49 64.03 224.49 64.03 295.38 85.83 284.09"/>
    <polygon class="cls-6" points="70.45 224.49 70.45 292.05 64.03 295.38 64.03 224.49 70.45 224.49"/>
    <rect class="cls-6" x="126.63" y=".12" width="40.86" height="3.58"/>
    <polygon class="cls-6" points="287.28 128.38 251.64 128.38 123.52 18.66 39.1 62.03 39.1 56.16 123.52 12.79 126.63 11.2 254.74 120.91 287.28 120.91 287.28 128.38"/>
    <polygon class="cls-6" points="287.28 179.69 249.55 199.24 249.55 134.18 287.28 134.18 287.28 179.69"/>
    <polygon class="cls-4" points="497.21 119.04 459.73 90.32 287.28 179.69 287.28 45.71 497.21 45.71 497.21 119.04"/>
    <rect class="cls-6" x="287.28" y="38.67" width="209.92" height="7.04"/>
    <rect class="cls-4" x="316.25" y="15.48" width="38.52" height="23.19"/>
    <rect class="cls-6" x="287.28" y="15.48" width="28.96" height="23.19"/>
    <rect class="cls-6" x="287.28" y="10.67" width="67.48" height="4.82"/>
    <polygon class="cls-6" points="636.93 276.3 459.82 140.55 459.82 102.98 636.93 238.73 636.93 276.3"/>
    <polygon class="cls-6" points="636.93 238.73 459.82 102.98 459.73 90.32 636.85 226.07 636.93 238.73"/>
    <polygon class="cls-6" points="558.77 39.41 525.31 56.75 525.31 140.58 558.77 166.23 558.77 39.41"/>
    <polygon class="cls-6" points="599.91 197.76 599.91 68.56 558.77 39.41 558.77 139.04 558.77 166.23 599.91 197.76"/>
    <polygon class="cls-6" points="182.15 274.52 182.15 264.53 284.88 211.29 284.88 221.92 284.55 222.09 182.15 274.52"/>
    <polygon class="cls-4" points="39.99 426.9 39.99 583.59 17.44 583.59 17.44 417.54 39.99 426.9"/>
    <polygon class="cls-6" points="48.42 412.59 48.42 671.21 7.05 671.21 7.05 397.14 48.42 412.59"/>
    <polygon class="cls-4" points="462.78 412.59 48.42 412.59 7.05 397.14 462.78 397.14 462.78 412.59"/>
    <rect class="cls-4" x="7.05" y="386.89" width="455.73" height="10.25"/>
    <rect class="cls-4" x="475.19" y="386.89" width="186.83" height="10.25"/>
    <rect class="cls-4" x="662.03" y="386.89" width="7.18" height="284.32"/>
    <rect class="cls-4" x="462.78" y="386.89" width="12.42" height="284.32"/>
    <rect class="cls-4" x="7.05" y="671.21" width="662.15" height="14.22"/>
    <polygon class="cls-6" points=".3 341.15 .13 328.5 459.73 90.32 459.82 102.98 .3 341.15"/>
    <polygon class="cls-6" points="7.05 342.03 48.09 351.39 48.09 386.89 7.05 386.89 7.05 342.03"/>
    <polygon class="cls-4" points=".3 341.15 7.05 337.65 7.05 685.43 .3 685.43 .3 341.15"/>
    <polygon class="cls-2" points="34.5 553.88 34.5 583.59 17.44 583.59 17.44 553.88 17.44 428.26 34.5 435.34 34.5 553.88"/>
    <line class="cls-4" x1="636.85" y1="226.07" x2="636.93" y2="276.3"/>
    <polyline class="cls-4" points="39.1 62.03 50 62.03 50 61.16 121.44 24.47 249.55 134.18 287.28 134.18"/>
    <line class="cls-4" x1="138.34" y1="21.23" x2="253.7" y2="21.23"/>
    <rect class="cls-6" x="398.13" y="45.71" width="3.34" height="16.02"/>
    <rect class="cls-6" x="315.45" y="45.71" width="3.34" height="16.02"/>
    <rect class="cls-6" x="287.28" y="61.73" width="209.92" height="3.34"/>
    <rect class="cls-6" x="287.28" y="78.73" width="209.92" height="3.34"/>
    <rect class="cls-6" x="373.57" y="65.07" width="3.34" height="13.65"/>
    <rect class="cls-6" x="353.56" y="82.07" width="3.34" height="23.14"/>
    <polygon class="cls-6" points="455.5 190.86 379.7 190.86 379.7 170.7 455.5 132.69 455.5 190.86"/>
    <polygon class="cls-6" points="459.82 140.55 631.19 271.9 631.19 386.89 459.82 386.89 459.82 140.55"/>
    <polygon class="cls-6" points="636.93 238.73 636.93 386.89 631.19 386.89 631.19 234.32 636.93 238.73"/>
    <polygon class="cls-6" points="599.91 197.76 599.91 68.56 558.77 39.41 558.77 139.04 558.77 166.23 599.91 197.76"/>
    <polygon class="cls-6" points="287.28 179.69 249.55 199.24 249.55 134.18 287.28 134.18 287.28 179.69"/>
    <line class="cls-4" x1="48.09" y1="386.89" x2="48.09" y2="351.39"/>
    <polygon class="cls-6" points="48.09 386.89 48.09 351.39 375.38 183.79 375.38 386.89 48.09 386.89"/>
    <rect class="cls-6" x="379.7" y="367.85" width="75.79" height="19.05"/>
    <rect class="cls-6" x="364.68" y="108.55" width="3.34" height="13.88"/>
    <rect class="cls-6" x="320.13" y="108.55" width="3.34" height="13.88"/>
    <rect class="cls-6" x="339.85" y="125.69" width="3.34" height="20.87"/>
    <rect class="cls-6" x="295.3" y="125.69" width="3.34" height="20.87"/>
    <rect class="cls-6" x="309.01" y="82.07" width="3.34" height="23.14"/>
    <polygon class="cls-6" points="254.22 227.18 284.88 211.29 284.88 221.92 249.55 240.01 249.55 229.6 254.22 227.18"/>
    <polygon class="cls-6" points="254.22 227.18 284.88 211.29 284.88 221.92 249.55 240.01 249.55 229.6 254.22 227.18"/>
    <rect class="cls-6" x="71.49" y="57.12" width="33.23" height="51.11"/>
  </g>
  <g id="title">
    <g class="cls-31">
      <g>
        <path class="cls-8" d="m322.67,253.22c2.48.84,3.74,2.44,4.56,4.61,3.52,9.24,7.01,18.49,10.74,27.64,2.16,5.32,6.64,8.96,10.36,13.12,1.32,1.47,2.71,2.9,4.23,4.16,1.25,1.04,1.27,2.04.47,3.25-.89,1.35-1.85,2.77-3.77,2.02-3.67-1.43-7.3-2.96-10.94-4.47-.77-.32-1.5-.73-2.61-1.28v5.95h-7.66c.17.82.28,1.64.51,2.43,4.06,13.99,5.81,28.41,8.11,42.73.67,4.17,1.26,8.35,1.88,12.52.45,3.03.15,3.5-2.84,3.8-4.9.5-4.29,1.58-6.18-3.81-2.14-6.09-4.48-12.13-6.29-18.32-1.18-4.02-1.53-8.28-2.3-12.42-.37-1.98-.83-3.95-1.28-6.06-.42.24-.66.28-.72.42-6.03,12.17-12.11,24.31-18.05,36.52-2.11,4.34-1.95,4.41-6.68,3.33-.31-.07-.63-.06-1.31-.13.78,3.27,1.52,6.35,2.21,9.28,5.48,1.5,10.67,3.19,15.62,5.54,0,.31.02.62.03.93-1.1.28-2.19.81-3.29.81-5.07.02-10.14-.08-15.21-.19-2.57-.06-2.8-.76-2.4-3.2.6-3.61,1.16-7.31,1.03-10.95-.17-4.71.85-9.15,1.73-13.67,2.04-10.44,6.91-19.74,11.43-29.2,3.32-6.95,6.4-14.01,9.73-21.32-2-.19-3.79-.38-5.59-.54-1.05-.09-2.1-.17-3.16-.17-5.12-.02-6.77-4.47-6-8.2,1.78-8.63,5.33-16.53,9.53-24.19,1.45-2.64,2.87-5.31,4.37-8.11-2.56-.36-4.98-.47-7.27-1.08-3.1-.83-6.17-1.87-9.1-3.16-2.16-.95-3.37-2.87-3.34-5.4.02-1.58.6-2.81,1.99-3.62,1.25-.73,2.49-1.48,3.74-2.21,1.82-1.07,3.22-2.45,3.86-4.55,1.16-3.78,3.98-5.58,7.69-6.22,1.1-.19,2.23-.38,3.34-.35,2.34.07,4.14-.39,5.69-2.58,1.86-2.64,8.81-3.16,11.44-1.31,1.74,1.22,1.04,4.7-1.3,5.73-1.24.54-2.67.64-4.01.92-1.34.27-2.16.69-1.11,2.23.29.42.19,1.24.04,1.81-.58,2.29-1.25,4.56-1.92,6.97Z"/>
        <path class="cls-8" d="m337.12,371.38c.91,2.45,1.57,4.66,2.58,6.7.32.65,1.57,1.14,2.4,1.17,4.34.12,8.69.06,13.04.07.63,0,1.26,0,1.89,0,.06.22.13.43.19.65-2.23.95-4.41,2.06-6.71,2.81-4.23,1.39-8.33,3.3-12.93,3.33-1.68,0-2.4-.55-2.88-2.2-.53-1.8-1.53-3.48-2.45-5.14-1.04-1.89-1.92-3.67.03-5.54.31-.3.28-.94.44-1.53,1.45-.11,2.88-.21,4.4-.32Z"/>
      </g>
    </g>
  </g>
</svg>